<svg width="106" height="21" viewBox="0 0 106 21" fill="none" xmlns="http://www.w3.org/2000/svg">
<g clip-path="url(#clip0_1_7)">
<path d="M0 20.48V0.880005H3.22V20.48H0ZM12.46 20.48V0.880005H15.68V20.48H12.46ZM2.212 11.8V8.86001H13.16V11.8H2.212Z" fill="white" style="fill:white;fill-opacity:1;"/>
<path d="M25.1416 20.76C23.9283 20.76 22.8269 20.452 21.8376 19.836C20.8669 19.22 20.0923 18.3893 19.5136 17.344C18.9536 16.28 18.6736 15.0947 18.6736 13.788C18.6736 12.4627 18.9536 11.2773 19.5136 10.232C20.0923 9.168 20.8669 8.32801 21.8376 7.71201C22.8269 7.07734 23.9283 6.76001 25.1416 6.76001C26.1683 6.76001 27.0736 6.98401 27.8576 7.43201C28.6603 7.86134 29.2949 8.45867 29.7616 9.22401C30.2283 9.98934 30.4616 10.8573 30.4616 11.828V15.692C30.4616 16.6627 30.2283 17.5307 29.7616 18.296C29.3136 19.0613 28.6883 19.668 27.8856 20.116C27.0829 20.5453 26.1683 20.76 25.1416 20.76ZM25.6456 17.848C26.7843 17.848 27.6989 17.4653 28.3896 16.7C29.0989 15.9347 29.4536 14.9547 29.4536 13.76C29.4536 12.9573 29.2949 12.248 28.9776 11.632C28.6603 11.016 28.2123 10.54 27.6336 10.204C27.0736 9.84934 26.4109 9.67201 25.6456 9.67201C24.8989 9.67201 24.2363 9.84934 23.6576 10.204C23.0976 10.54 22.6496 11.016 22.3136 11.632C21.9963 12.248 21.8376 12.9573 21.8376 13.76C21.8376 14.5627 21.9963 15.272 22.3136 15.888C22.6496 16.504 23.0976 16.9893 23.6576 17.344C24.2363 17.68 24.8989 17.848 25.6456 17.848ZM29.2576 20.48V16.868L29.7896 13.592L29.2576 10.344V7.04001H32.3376V20.48H29.2576Z" fill="white" style="fill:white;fill-opacity:1;"/>
<path d="M35.7558 20.48V7.04001H38.8358V20.48H35.7558ZM38.8358 13.004L37.7718 12.472C37.7718 10.7733 38.1451 9.40134 38.8918 8.35601C39.6571 7.29201 40.8051 6.76001 42.3358 6.76001C43.0078 6.76001 43.6144 6.88134 44.1558 7.12401C44.6971 7.36667 45.2011 7.75867 45.6678 8.30001L43.6518 10.372C43.4091 10.1107 43.1385 9.92401 42.8398 9.81201C42.5411 9.70001 42.1958 9.64401 41.8038 9.64401C40.9451 9.64401 40.2358 9.91467 39.6758 10.456C39.1158 10.9973 38.8358 11.8467 38.8358 13.004Z" fill="white" style="fill:white;fill-opacity:1;"/>
<path d="M47.1581 20.48V7.04001H50.2381V20.48H47.1581ZM56.0901 20.48V12.472C56.0901 11.576 55.8101 10.8853 55.2501 10.4C54.6901 9.89601 53.9995 9.64401 53.1781 9.64401C52.6181 9.64401 52.1141 9.75601 51.6661 9.98001C51.2368 10.204 50.8915 10.5307 50.6301 10.96C50.3688 11.3707 50.2381 11.8747 50.2381 12.472L49.0341 11.8C49.0341 10.7733 49.2581 9.88667 49.7061 9.14001C50.1541 8.39334 50.7608 7.81467 51.5261 7.40401C52.2915 6.97467 53.1501 6.76001 54.1021 6.76001C55.0541 6.76001 55.9128 6.96534 56.6781 7.37601C57.4435 7.78667 58.0501 8.36534 58.4981 9.11201C58.9461 9.85867 59.1701 10.7547 59.1701 11.8V20.48H56.0901ZM65.0221 20.48V12.472C65.0221 11.576 64.7421 10.8853 64.1821 10.4C63.6221 9.89601 62.9315 9.64401 62.1101 9.64401C61.5688 9.64401 61.0741 9.75601 60.6261 9.98001C60.1781 10.204 59.8235 10.5307 59.5621 10.96C59.3008 11.3707 59.1701 11.8747 59.1701 12.472L57.4341 11.8C57.5275 10.7733 57.8261 9.88667 58.3301 9.14001C58.8341 8.39334 59.4781 7.81467 60.2621 7.40401C61.0648 6.97467 61.9421 6.76001 62.8941 6.76001C63.8648 6.76001 64.7421 6.96534 65.5261 7.37601C66.3101 7.78667 66.9355 8.36534 67.4021 9.11201C67.8688 9.85867 68.1021 10.7547 68.1021 11.8V20.48H65.0221Z" fill="white" style="fill:white;fill-opacity:1;"/>
<path d="M77.4353 20.76C76.1286 20.76 74.9433 20.452 73.8793 19.836C72.8153 19.2013 71.966 18.352 71.3313 17.288C70.7153 16.224 70.4073 15.0387 70.4073 13.732C70.4073 12.4253 70.7153 11.2493 71.3313 10.204C71.966 9.15867 72.8153 8.32801 73.8793 7.71201C74.9433 7.07734 76.1286 6.76001 77.4353 6.76001C78.7606 6.76001 79.9553 7.06801 81.0193 7.68401C82.0833 8.30001 82.9233 9.14001 83.5393 10.204C84.174 11.2493 84.4913 12.4253 84.4913 13.732C84.4913 15.0387 84.174 16.224 83.5393 17.288C82.9233 18.352 82.0833 19.2013 81.0193 19.836C79.9553 20.452 78.7606 20.76 77.4353 20.76ZM77.4353 17.792C78.2006 17.792 78.8726 17.624 79.4513 17.288C80.0486 16.9333 80.506 16.448 80.8233 15.832C81.1593 15.216 81.3273 14.516 81.3273 13.732C81.3273 12.948 81.1593 12.2573 80.8233 11.66C80.4873 11.0627 80.03 10.596 79.4513 10.26C78.8726 9.90534 78.2006 9.72801 77.4353 9.72801C76.6886 9.72801 76.0166 9.90534 75.4193 10.26C74.8406 10.596 74.3833 11.0627 74.0473 11.66C73.73 12.2573 73.5713 12.948 73.5713 13.732C73.5713 14.516 73.73 15.216 74.0473 15.832C74.3833 16.448 74.8406 16.9333 75.4193 17.288C76.0166 17.624 76.6886 17.792 77.4353 17.792Z" fill="white" style="fill:white;fill-opacity:1;"/>
<path d="M96.2647 20.48V12.724C96.2647 11.828 95.9753 11.0907 95.3967 10.512C94.8367 9.93334 94.1087 9.64401 93.2127 9.64401C92.6153 9.64401 92.0833 9.77467 91.6167 10.036C91.15 10.2973 90.786 10.6613 90.5247 11.128C90.2633 11.5947 90.1327 12.1267 90.1327 12.724L88.9287 12.052C88.9287 11.0253 89.1527 10.12 89.6007 9.33601C90.0487 8.53334 90.6647 7.90801 91.4487 7.46001C92.2513 6.99334 93.1473 6.76001 94.1367 6.76001C95.1447 6.76001 96.0407 7.02134 96.8247 7.54401C97.6087 8.04801 98.2247 8.71067 98.6727 9.53201C99.1207 10.3347 99.3447 11.1747 99.3447 12.052V20.48H96.2647ZM87.0527 20.48V7.04001H90.1327V20.48H87.0527Z" fill="white" style="fill:white;fill-opacity:1;"/>
<path d="M102.503 20.48V7.04001H105.583V20.48H102.503ZM104.043 4.57601C103.52 4.57601 103.081 4.39867 102.727 4.04401C102.391 3.68934 102.223 3.25067 102.223 2.72801C102.223 2.20534 102.391 1.76667 102.727 1.412C103.081 1.05734 103.52 0.880005 104.043 0.880005C104.584 0.880005 105.023 1.05734 105.359 1.412C105.695 1.76667 105.863 2.20534 105.863 2.72801C105.863 3.25067 105.695 3.68934 105.359 4.04401C105.023 4.39867 104.584 4.57601 104.043 4.57601Z" fill="white" style="fill:white;fill-opacity:1;"/>
</g>
<defs>
<clipPath id="clip0_1_7">
<rect width="105.863" height="19.88" fill="white" style="fill:white;fill-opacity:1;" transform="translate(0 0.880005)"/>
</clipPath>
</defs>
</svg>
